# xmcd
#
# Track frame offsets: 
#        150
#        11172
#        22515
#        33180
#        44547
#        57564
#        73078
#        87699
#        99240
#        119517
#        130339
#        140573
#        152422
#        165757
#        177754
#        186979
#        197170
#        205845
#        220964
#        233872
#        243373
#        254672
#        265165
#        276752
#        289117
#        302464
#        311070
#        327009
#        339588
#        351935
#
# Disc length: 4796 seconds
#
# Revision: 0
# Processed by: cddbd v1.4PL0 Copyright (c) Steve Scherf et al.
# Submitted via: ExactAudioCopy v0.95a3
#
DISCID=bb12ba1e
DTITLE=Разные Исполнители - Лучшие песни 60-х
DYEAR=2003
DGENRE=Folklore
TTITLE0=В. Макаров - Электричка
TTITLE1=Т. Миансарова - Чёрный Кот
TTITLE2=В. Маркин - Я Готов Целовать Песок
TTITLE3=М. Магамаев - Королева Красоты
TTITLE4=Ю. Никулин - Песня Про Зайцев
TTITLE5=В. Ободзинский - Восточная Песня
TTITLE6=Б.Б. Оглы - Позвони
TTITLE7=Г. Великанова - Ландыши
TTITLE8=А. Ведищева - Помоги Мне
TTITLE9=Н. Пантелеева - У Моря
TTITLE10=А. Миронов - Остров Невезения
TTITLE11=Э. Пьеха - Наш Сосед
TTITLE12=И. Сахадзе - Оранжевая Песня
TTITLE13=Ю. Никулин - Если бы Я был Султан
TTITLE14=И. Кобзон - А у Нас во Дворе
TTITLE15=М. Пахоменко - Качает
TTITLE16=В. Оруметс - Летка-Енка
TTITLE17=Э. Хиль - Лада
TTITLE18=А. Ведищева - Песенка про Медведей
TTITLE19=Э. Пьеха - Ничего не Вижу, Ничего не Слышу
TTITLE20=И. Сахадзе - Топ Топ
TTITLE21=Кв. Аккорд - Пингвины
TTITLE22=Кв. Аккорд - Одиссей
TTITLE23=О. Ануфриев - Песня ни о Чём
TTITLE24=В. Ободзинский - Карнавал
TTITLE25=Э. Пьеха - Манжерок
TTITLE26=В. Маркин - Сереневый Туман
TTITLE27=Л. Барашков - Главное Ребята, Сердцем не Стареть
TTITLE28=Л. Гурченко - Хорошее Настроение
TTITLE29=А. Зацепин - Кавказская Пленница
EXTD=
EXTT0=
EXTT1=
EXTT2=
EXTT3=
EXTT4=
EXTT5=
EXTT6=
EXTT7=
EXTT8=
EXTT9=
EXTT10=
EXTT11=
EXTT12=
EXTT13=
EXTT14=
EXTT15=
EXTT16=
EXTT17=
EXTT18=
EXTT19=
EXTT20=
EXTT21=
EXTT22=
EXTT23=
EXTT24=
EXTT25=
EXTT26=
EXTT27=
EXTT28=
EXTT29=
PLAYORDER=
